<?xml version="1.0" standalone="no"?>
<!DOCTYPE svg PUBLIC "-//W3C//DTD SVG 20010904//EN"
 "http://www.w3.org/TR/2001/REC-SVG-20010904/DTD/svg10.dtd">
<svg version="1.0" xmlns="http://www.w3.org/2000/svg"
 width="32.000000pt" height="32.000000pt" viewBox="0 0 32.000000 32.000000"
 preserveAspectRatio="xMidYMid meet">

<g transform="translate(0.000000,32.000000) scale(0.100000,-0.100000)"
fill="#000000" stroke="none">
<path d="M83 248 c-38 -41 -47 -81 -29 -132 17 -48 76 -87 100 -66 9 7 16 23
16 36 0 13 5 24 10 24 6 0 10 -9 10 -20 0 -13 7 -20 20 -20 11 0 20 5 20 10 0
6 -4 10 -10 10 -5 0 -10 9 -10 20 0 13 -7 20 -20 20 -11 0 -20 5 -20 10 0 6
14 10 30 10 17 0 30 5 30 10 0 6 -13 10 -30 10 -16 0 -30 5 -30 10 0 6 9 10
20 10 13 0 20 7 20 20 0 11 5 20 10 20 6 0 10 5 10 10 0 6 -9 10 -20 10 -13 0
-20 -7 -20 -20 0 -11 -4 -20 -10 -20 -5 0 -10 10 -10 23 0 54 -43 61 -87 15z
m65 -21 c2 -18 -2 -29 -12 -33 -9 -3 -16 -11 -16 -16 0 -6 7 -8 15 -4 12 4 15
-5 15 -54 0 -47 -3 -60 -15 -60 -8 0 -15 4 -15 9 0 5 -9 11 -20 14 -21 5 -27
31 -10 42 18 11 10 23 -11 18 -20 -6 -21 -4 -14 33 8 47 12 54 30 54 7 0 16 7
19 16 9 23 31 11 34 -19z"/>
<path d="M244 249 c-10 -17 13 -36 27 -22 12 12 4 33 -11 33 -5 0 -12 -5 -16
-11z"/>
<path d="M244 169 c-10 -17 13 -36 27 -22 12 12 4 33 -11 33 -5 0 -12 -5 -16
-11z"/>
<path d="M244 89 c-10 -17 13 -36 27 -22 12 12 4 33 -11 33 -5 0 -12 -5 -16
-11z"/>
</g>
</svg>
